# xmcd CD database file
#
# Track frame offsets:
#	150
#	4622
#	21103
#	47003
#	68733
#	92483
#	112085
#	133356
#	149127
#	185396
#
# Disc length: 2545 seconds
#
# Revision: 0
# Processed by: cddbd v1.5PL3 Copyright (c) Steve Scherf et al.
# Submitted via: CDex 1.51
#
DISCID=8c09ef0a
DTITLE=Sprinkhuizen, Fennis and Didderen - Nieuw!
DYEAR=1998
DGENRE=Jazz
TTITLE0=Moef
TTITLE1=Nieuw
TTITLE2=Lucky Luke
TTITLE3=TTBA
TTITLE4=Anna P.
TTITLE5=Orbithology
TTITLE6=I don't wanna play your regular bebop
TTITLE7=Cuba
TTITLE8=Adam's Apple
TTITLE9=Da Di Doo Daa
EXTD=YEAR: 1998
EXTT0=
EXTT1=
EXTT2=
EXTT3=
EXTT4=
EXTT5=
EXTT6=
EXTT7=
EXTT8=
EXTT9=
PLAYORDER=
